<?xml version="1.0" encoding="UTF-8"?>
<svg id="Capa_1" data-name="Capa 1" xmlns="http://www.w3.org/2000/svg" viewBox="0 0 213.12 49.42">
  <g fill="#ffffff">
    <path d="M7.97,2h3.77l7.97,38.53h-4.28l-1.7-8.58h-7.86l-1.7,8.58H0L7.97,2ZM12.27,24.52l-2.47-12.41-2.47,12.41h4.94Z"/>
    <path d="M21.62,24.14V2.27h4.09v21.64c0,6.23,1.51,9.46,4.01,9.46s4.01-3.12,4.01-9.18V2.27h4.09v21.59c0,11.59-3.16,17.27-8.15,17.27s-8.05-5.74-8.05-17Z"/>
    <path d="M46.32,10.03h-5.66V2.27h15.4v7.76h-5.66v30.5h-4.09V10.03Z"/>
    <path d="M57.58,21.51v-.11c0-10.88,4.17-19.79,9.91-19.79s9.85,8.8,9.85,19.68v.11c0,10.88-4.17,19.79-9.91,19.79s-9.85-8.8-9.85-19.68ZM73.06,21.51v-.11c0-6.56-2.34-12.02-5.63-12.02s-5.58,5.36-5.58,11.91v.11c0,6.56,2.34,12.02,5.63,12.02s5.58-5.36,5.58-11.92Z"/>
    <path d="M79.57,34.96l2.42-5.96c1.67,2.84,3.43,4.65,5.55,4.65,1.67,0,2.68-1.37,2.68-3.61v-.11c0-2.13-.64-3.22-3.74-4.86-3.74-1.97-6.16-4.1-6.16-11.7v-.11c0-6.94,2.71-11.53,6.51-11.53,2.71,0,5.02,1.75,6.9,4.86l-2.12,6.34c-1.65-2.35-3.27-3.77-4.83-3.77s-2.39,1.48-2.39,3.33v.11c0,2.51.8,3.33,4.01,5.03,3.77,2.02,5.9,4.81,5.9,11.48v.11c0,7.6-2.82,11.86-6.83,11.86-2.82,0-5.66-2.02-7.89-6.12Z"/>
  </g>
  <g fill="#ffffff">
    <path d="M101.8,2.27h3.77l8.71,23.56V2.27h4.04v38.26h-3.48l-9-24.32v24.32h-4.04V2.27Z"/>
    <path d="M121.95,21.51v-.11c0-10.88,4.17-19.79,9.91-19.79s9.85,8.8,9.85,19.68v.11c0,10.88-4.17,19.79-9.91,19.79s-9.85-8.8-9.85-19.68ZM137.43,21.51v-.11c0-6.56-2.34-12.02-5.63-12.02s-5.58,5.36-5.58,11.91v.11c0,6.56,2.34,12.02,5.63,12.02s5.58-5.36,5.58-11.92Z"/>
    <path d="M145.35,2.27h8.5c2.36,0,4.2,1.37,5.42,3.88,1.04,2.13,1.59,5.14,1.59,8.74v.11c0,6.18-1.62,10.06-3.98,11.86l4.54,13.66h-4.78l-3.98-12.24h-3.21v12.24h-4.09V2.27ZM153.58,20.86c1.99,0,3.13-2.19,3.13-5.41v-.11c0-3.61-1.22-5.47-3.21-5.47h-4.06v10.99h4.14Z"/>
    <path d="M168.88,10.03h-5.66V2.27h15.4v7.76h-5.66v30.5h-4.09V10.03Z"/>
    <path d="M181.76,2.27h14.02v7.49h-9.96v7.76h8.76v7.49h-8.76v8.03h10.09v7.49h-14.15V2.27Z"/>
  </g>
  <g fill="#ffffff">
    <path d="M202.87,40.5c-.1-.8-.18-1.75-.18-2.79,0-1.89.37-3.23,1.07-4.12.7-.91,1.7-1.43,3.09-1.43s2.55.51,3.34,1.46c.8.95,1.24,2.52,1.24,4.5,0,.94-.04,1.72-.1,2.39h-8.46ZM210.48,39.18c.05-.33.06-.82.06-1.33,0-2.81-1.33-4.33-3.65-4.33-2.03-.02-3.32,1.34-3.32,4.12,0,.68.05,1.19.11,1.54h6.79Z"/>
    <path d="M207.33,25.17v3.95h3.1v-4.41h.93v5.72h-8.6v-5.49h.93v4.18h2.72v-3.95h.92Z"/>
    <path d="M207.58,14.44c-1.2.08-2.64.17-3.71.15v.05c1.01.35,2.08.77,3.27,1.28l4.17,1.8v1l-4.1,1.65c-1.21.48-2.32.89-3.34,1.18v.03c1.07.03,2.52.11,3.8.2l3.69.27v1.25l-8.6-.71v-1.68l4.16-1.74c1.06-.42,2-.77,2.9-1.03v-.05c-.87-.26-1.81-.62-2.9-1.07l-4.16-1.81v-1.68l8.6-.63v1.28l-3.78.26Z"/>
    <path d="M206.97,2.18c2.96,0,4.53,2.13,4.53,4.72s-1.76,4.57-4.37,4.57c-2.73,0-4.52-2.01-4.52-4.72s1.8-4.57,4.35-4.57ZM207.11,10.07c1.84,0,3.48-1.18,3.48-3.25s-1.62-3.26-3.57-3.26c-1.71,0-3.5,1.06-3.5,3.25s1.7,3.26,3.59,3.26Z"/>
  </g>
  <rect x="0" y="44.25" width="213.12" height="3.33" fill="#ffffff"/>
</svg>
